<svg xmlns="http://www.w3.org/2000/svg" width="640" viewBox="0 0 480 480" height="640" version="1.0">
  <path fill="#fff" d="M367.336 260.457a58.7 58.7 0 0 0 11.434-1.062 58.5 58.5 0 0 0 11.007-3.274 58.7 58.7 0 0 0 10.156-5.355 58 58 0 0 0 4.637-3.403 58 58 0 0 0 4.282-3.836 58 58 0 0 0 3.886-4.238 58.3 58.3 0 0 0 6.43-9.512 58.4 58.4 0 0 0 5.883-16.156 59 59 0 0 0 .875-5.684q.3-2.86.312-5.738a58 58 0 0 0-.25-5.742 58 58 0 0 0-.812-5.691 58 58 0 0 0-1.363-5.586 58 58 0 0 0-1.91-5.422 57 57 0 0 0-2.43-5.211 59 59 0 0 0-2.926-4.95 60 60 0 0 0-3.399-4.636 58.6 58.6 0 0 0-12.675-11.613 59 59 0 0 0-10.098-5.473 59 59 0 0 0-5.402-1.965 58 58 0 0 0-5.57-1.426 59 59 0 0 0-11.422-1.191 34 34 0 0 0-.735-2.672 34 34 0 0 0-.957-2.598 32.6 32.6 0 0 0-2.55-4.914 33 33 0 0 0-3.332-4.418 33 33 0 0 0-1.934-1.988 33 33 0 0 0-2.094-1.812 33 33 0 0 0-2.238-1.637 33 33 0 0 0-2.368-1.438 32.5 32.5 0 0 0-5.05-2.261 32 32 0 0 0-2.653-.805 32.7 32.7 0 0 0-5.457-.934 35 35 0 0 0-2.765-.12 33 33 0 0 0-4.286.277 55 55 0 0 0-2.675-3.028 53 53 0 0 0-2.907-2.808 51.6 51.6 0 0 0-13.527-8.735 52 52 0 0 0-3.754-1.492 53 53 0 0 0-7.8-2.082 51.5 51.5 0 0 0-8.031-.84 51.7 51.7 0 0 0-12.048 1.098q-1.98.421-3.918.988-1.94.574-3.832 1.293a81 81 0 0 0-12.558-13.453 81 81 0 0 0-4.828-3.805 80 80 0 0 0-5.098-3.433 82 82 0 0 0-10.906-5.66 81 81 0 0 0-5.739-2.192 80 80 0 0 0-5.894-1.754 80.6 80.6 0 0 0-12.094-2.148 81 81 0 0 0-6.137-.379 79 79 0 0 0-6.144.086q-3.071.159-6.125.547a80.6 80.6 0 0 0-12.031 2.48 81 81 0 0 0-17.004 7.043 81 81 0 0 0-10.262 6.754 80 80 0 0 0-4.719 3.938 81.5 81.5 0 0 0-8.476 8.89 84 84 0 0 0-3.711 4.903 84 84 0 0 0-3.328 5.168 81 81 0 0 0-5.434 11.02 80 80 0 0 0-2.078 5.784 80 80 0 0 0-1.633 5.926 81 81 0 0 0-1.184 6.031 82 82 0 0 0-.718 6.106q-2.672.478-5.285 1.203a59 59 0 0 0-5.157 1.687 59 59 0 0 0-9.726 4.77 58 58 0 0 0-8.684 6.477 58 58 0 0 0-7.344 7.965 57 57 0 0 0-3.09 4.456 59 59 0 0 0-2.663 4.723 60 60 0 0 0-2.215 4.95 59 59 0 0 0-1.746 5.136 58 58 0 0 0-1.266 5.27 59 59 0 0 0-.773 5.367 58 58 0 0 0-.27 5.418 58 58 0 0 0 .227 5.418c.16 1.8.402 3.593.73 5.37a58 58 0 0 0 2.93 10.434 59 59 0 0 0 2.172 4.965 60 60 0 0 0 2.625 4.746 58 58 0 0 0 3.054 4.48 58 58 0 0 0 3.453 4.184 59 59 0 0 0 3.825 3.844 60 60 0 0 0 4.164 3.473 59 59 0 0 0 9.203 5.718 58.5 58.5 0 0 0 20.742 5.93c1.8.168 3.61.254 5.418.254h12.613v41.406a32 32 0 0 1-.496 5.598 33 33 0 0 1-.605 2.742 32 32 0 0 1-1.918 5.281 32 32 0 0 1-2.797 4.875 32.5 32.5 0 0 1-15.309 11.895q-1.318.492-2.676.867-1.354.38-2.738.637a23 23 0 0 0-1.082-2.465 22.95 22.95 0 0 0-9.203-9.586 23 23 0 0 0-2.418-1.184 25 25 0 0 0-2.543-.89 23.2 23.2 0 0 0-5.308-.863 23 23 0 0 0-5.364.39 22 22 0 0 0-2.613.664q-1.284.405-2.516.961-1.228.558-2.386 1.25a23.3 23.3 0 0 0-4.254 3.293 23 23 0 0 0-1.809 1.996 22.8 22.8 0 0 0-3.875 7.051 22.8 22.8 0 0 0-1.117 5.262 23 23 0 0 0-.094 2.691q.035 1.348.227 2.684.188 1.335.535 2.64.346 1.306.84 2.559.497 1.255 1.136 2.445a23.5 23.5 0 0 0 3.082 4.406 23 23 0 0 0 6.32 4.981c.794.426 1.606.8 2.446 1.129q1.253.497 2.559.84a23 23 0 0 0 5.324.75 22.7 22.7 0 0 0 5.355-.504 22.8 22.8 0 0 0 5.094-1.73q1.218-.587 2.36-1.301a23 23 0 0 0 2.19-1.57 22 22 0 0 0 1.993-1.813c.629-.64 1.219-1.32 1.766-2.031a23.1 23.1 0 0 0 3.727-7.133 49 49 0 0 0 4.167-.758 48 48 0 0 0 8.059-2.621 47 47 0 0 0 3.816-1.844 47 47 0 0 0 7.07-4.664 47 47 0 0 0 8.77-9.164 46 46 0 0 0 2.34-3.54 47 47 0 0 0 2.012-3.73 47.1 47.1 0 0 0 4.512-16.262c.128-1.406.195-2.82.195-4.234v-41.406h50.457v111.402a23 23 0 0 0-2.508 1.016 23 23 0 0 0-4.574 2.871 23 23 0 0 0-2 1.817 23 23 0 0 0-1.778 2.039 22.7 22.7 0 0 0-2.78 4.628 23.2 23.2 0 0 0-1.63 5.149 24 24 0 0 0-.351 2.68 24 24 0 0 0-.036 2.707q.065 1.349.282 2.687.222 1.335.597 2.64.37 1.3.899 2.552.522 1.248 1.191 2.425.668 1.178 1.469 2.274a23 23 0 0 0 1.723 2.082q.92.992 1.953 1.867a23 23 0 0 0 6.98 4.07 23 23 0 0 0 5.25 1.254q1.347.16 2.7.16 1.355 0 2.699-.16a23 23 0 0 0 7.734-2.332q1.206-.614 2.336-1.363c.75-.5 1.473-1.043 2.16-1.625q1.032-.88 1.957-1.871a24 24 0 0 0 1.723-2.082 24 24 0 0 0 1.469-2.274q.663-1.177 1.191-2.425.523-1.252.898-2.551.376-1.306.594-2.64.223-1.34.281-2.688a22 22 0 0 0-.035-2.707 23.5 23.5 0 0 0-1.012-5.305 23 23 0 0 0-.968-2.524 23 23 0 0 0-2.778-4.628 23 23 0 0 0-1.777-2.04 23.2 23.2 0 0 0-4.207-3.386 23 23 0 0 0-2.371-1.301 23 23 0 0 0-2.508-1.016V260.457h50.477v87.059a23 23 0 0 0-2.504 1.015 22.9 22.9 0 0 0-6.57 4.688 23 23 0 0 0-1.778 2.035 23.3 23.3 0 0 0-2.777 4.625 23 23 0 0 0-.961 2.527 23 23 0 0 0-.664 2.617 24 24 0 0 0-.352 2.68c-.062.902-.074 1.8-.031 2.703q.06 1.353.281 2.688.218 1.336.594 2.636.375 1.3.898 2.547a23.3 23.3 0 0 0 2.657 4.696 24 24 0 0 0 1.722 2.082c.618.66 1.266 1.28 1.953 1.867q1.036.874 2.16 1.625 1.131.75 2.337 1.36 1.205.615 2.476 1.077 1.273.47 2.586.782 1.319.315 2.66.472 1.347.16 2.7.16a23 23 0 0 0 2.695-.16 23 23 0 0 0 2.66-.472 22 22 0 0 0 2.59-.782 22 22 0 0 0 2.476-1.078 22.9 22.9 0 0 0 6.446-4.851 23 23 0 0 0 1.722-2.082 23 23 0 0 0 1.469-2.27q.666-1.178 1.191-2.426.523-1.247.899-2.547c.25-.867.445-1.746.594-2.636q.216-1.334.28-2.688c.044-.902.032-1.8-.034-2.703a22 22 0 0 0-.352-2.68 22 22 0 0 0-.66-2.617 23.2 23.2 0 0 0-2.215-4.922 23 23 0 0 0-1.527-2.23 23.2 23.2 0 0 0-3.773-3.852 23 23 0 0 0-2.204-1.57q-1.142-.72-2.367-1.3a23 23 0 0 0-2.504-1.016v-87.059h45.8v33.242q.006 2.074.192 4.14.189 2.063.559 4.106c.25 1.36.555 2.703.926 4.035a45 45 0 0 0 1.281 3.942 45 45 0 0 0 1.629 3.808 46 46 0 0 0 4.242 7.11 46 46 0 0 0 2.578 3.242q1.365 1.561 2.86 2.996a46.7 46.7 0 0 0 10.016 7.305 47 47 0 0 0 3.726 1.805 46 46 0 0 0 3.875 1.464q1.969.65 3.992 1.114a45 45 0 0 0 4.074.754q.406 1.293.957 2.527.555 1.237 1.25 2.398.693 1.167 1.52 2.239a23 23 0 0 0 1.77 2.043 23 23 0 0 0 2 1.82 23 23 0 0 0 7.066 3.91q1.282.435 2.605.723c.883.187 1.774.328 2.672.41q1.348.13 2.703.098c.902-.02 1.8-.09 2.695-.22a22.8 22.8 0 0 0 5.223-1.37q1.259-.493 2.453-1.133a22 22 0 0 0 2.305-1.414 23 23 0 0 0 2.125-1.672 22 22 0 0 0 1.914-1.91 23 23 0 0 0 1.68-2.121q.773-1.107 1.418-2.301a23 23 0 0 0 1.984-5.02q.345-1.311.54-2.652c.128-.895.202-1.79.226-2.695q.03-1.353-.094-2.7a23.2 23.2 0 0 0-1.121-5.281 23.3 23.3 0 0 0-3.89-7.078 22 22 0 0 0-1.821-2 23 23 0 0 0-2.04-1.777 22.95 22.95 0 0 0-9.773-4.406 23 23 0 0 0-2.683-.356q-1.35-.093-2.703-.035-1.353.065-2.688.281-1.335.218-2.64.594c-.868.25-1.715.547-2.551.894a23.25 23.25 0 0 0-8.657 6.329 23 23 0 0 0-2.992 4.492q-.616 1.208-1.086 2.48a31 31 0 0 1-2.644-.633 31 31 0 0 1-5.082-1.933 31 31 0 0 1-4.672-2.777 31.8 31.8 0 0 1-5.945-5.559 31.6 31.6 0 0 1-3.082-4.477 31 31 0 0 1-1.243-2.422 32 32 0 0 1-1.023-2.52 30 30 0 0 1-.809-2.597 31 31 0 0 1-.578-2.656 30 30 0 0 1-.347-2.7 30 30 0 0 1-.114-2.718v-33.242Zm-265.578 89.535a8.3 8.3 0 0 1-1.61-.172 8.5 8.5 0 0 1-1.543-.484 8.2 8.2 0 0 1-2.664-1.813 8.2 8.2 0 0 1-1.773-2.691 8.27 8.27 0 0 1 .809-7.742q.457-.676 1.03-1.246a8.3 8.3 0 0 1 2.688-1.781 8.24 8.24 0 0 1 4.774-.454 8.2 8.2 0 0 1 2.973 1.238q.678.452 1.25 1.028.574.58 1.027 1.254c.3.453.554.926.761 1.43a8.2 8.2 0 0 1 .625 3.16q0 .82-.16 1.62a8.4 8.4 0 0 1-1.254 2.993 8.2 8.2 0 0 1-2.305 2.285 8 8 0 0 1-1.44.762 8.4 8.4 0 0 1-1.563.465 8.4 8.4 0 0 1-1.625.148m120.765 51.969a8.3 8.3 0 0 1-1.613-.16 8.4 8.4 0 0 1-2.976-1.242 8.4 8.4 0 0 1-1.254-1.032 8.3 8.3 0 0 1-2.25-7.464 8.27 8.27 0 0 1 3.523-5.258q.68-.45 1.43-.766a8.3 8.3 0 0 1 6.332.008q.75.309 1.426.766.679.451 1.254 1.027.574.574 1.027 1.254.456.674.766 1.43.31.752.468 1.55.16.797.16 1.613 0 .815-.164 1.618a8 8 0 0 1-.472 1.55q-.312.756-.766 1.43a8.4 8.4 0 0 1-1.031 1.254 8.35 8.35 0 0 1-4.242 2.266 8.3 8.3 0 0 1-1.618.156m65.25-24.34q-.819.002-1.62-.156a8.4 8.4 0 0 1-1.555-.469 8.4 8.4 0 0 1-2.695-1.793 8.4 8.4 0 0 1-1.805-2.687 8.3 8.3 0 0 1-.473-1.559 8.3 8.3 0 0 1-.164-1.617q.001-.815.16-1.617a8.3 8.3 0 0 1 .469-1.559q.309-.755.765-1.434a8 8 0 0 1 1.028-1.257q.58-.579 1.258-1.036a8.4 8.4 0 0 1 2.988-1.242 8.4 8.4 0 0 1 1.621-.16 8.35 8.35 0 0 1 4.61 1.395q.677.457 1.257 1.03.575.58 1.031 1.259a8.3 8.3 0 0 1 1.239 2.992 8.28 8.28 0 0 1-1.238 6.215 8.3 8.3 0 0 1-3.712 3.054c-.5.207-1.019.368-1.55.473q-.798.163-1.614.168m115.094-53.394a8.3 8.3 0 0 1 3.168.632q.75.31 1.43.762.679.458 1.254 1.031.575.575 1.027 1.254c.305.45.559.93.766 1.43s.363 1.02.472 1.55c.106.536.157 1.071.157 1.618 0 .543-.051 1.078-.157 1.613a8.6 8.6 0 0 1-.472 1.551q-.31.756-.766 1.43a8 8 0 0 1-1.027 1.254 8.2 8.2 0 0 1-2.684 1.793q-.754.315-1.555.472-.797.16-1.613.16a8.3 8.3 0 0 1-3.164-.632 8.3 8.3 0 0 1-1.433-.762 8.6 8.6 0 0 1-1.254-1.031 8 8 0 0 1-1.028-1.254 8.3 8.3 0 0 1-1.234-2.98 8.3 8.3 0 0 1-.16-1.614q0-.815.164-1.613.157-.803.472-1.551.31-.756.762-1.43a8.29 8.29 0 0 1 6.875-3.684M93.484 201.875a44 44 0 0 1 1.746-12.215 44 44 0 0 1 1.34-3.902 42 42 0 0 1 1.7-3.762 44 44 0 0 1 2.043-3.582 45 45 0 0 1 2.374-3.375 43.8 43.8 0 0 1 15.957-12.777 45 45 0 0 1 3.813-1.582 45 45 0 0 1 3.941-1.211 44 44 0 0 1 8.14-1.29l6.966-.534v-6.965a66.33 66.33 0 0 1 16.773-44.114 66.5 66.5 0 0 1 12.035-10.617 66.5 66.5 0 0 1 24.528-10.36 68 68 0 0 1 5.293-.839 68 68 0 0 1 5.347-.41 68 68 0 0 1 5.36.023 64 64 0 0 1 5.34.457q2.66.334 5.285.883a66 66 0 0 1 10.273 3.031 66 66 0 0 1 4.922 2.13 66.5 66.5 0 0 1 9.246 5.406 66.6 66.6 0 0 1 8.254 6.824 66.7 66.7 0 0 1 10.067 12.496l3.691 5.894 6.113-3.308a36.4 36.4 0 0 1 8.485-3.324 36.2 36.2 0 0 1 9.043-1.106c1.52 0 3.027.094 4.535.277a36.8 36.8 0 0 1 8.797 2.215q2.121.822 4.125 1.895a37 37 0 0 1 3.867 2.39 38 38 0 0 1 3.539 2.848 37.2 37.2 0 0 1 5.906 6.883l3.027 4.562 5.247-1.57a18.4 18.4 0 0 1 4.168-.742 18.2 18.2 0 0 1 8.285 1.445q.973.416 1.894.95a18.23 18.23 0 0 1 8.633 11.578q.245 1.03.367 2.09c.086.703.125 1.406.125 2.113v7.39h13.297q2.153 0 4.293.211 2.145.209 4.254.63 2.11.42 4.172 1.042 2.055.627 4.047 1.45a44 44 0 0 1 11.027 6.61 43.7 43.7 0 0 1 6.07 6.074 43.4 43.4 0 0 1 4.77 7.14 43 43 0 0 1 1.84 3.886 43.4 43.4 0 0 1 2.492 8.215 43.5 43.5 0 0 1 .844 8.547 43.8 43.8 0 0 1-1.887 12.719 43.6 43.6 0 0 1-3.29 7.934 44 44 0 0 1-2.206 3.687 43.7 43.7 0 0 1-5.45 6.637 45 45 0 0 1-3.183 2.886 44 44 0 0 1-3.453 2.563 43.5 43.5 0 0 1-7.574 4.047 44 44 0 0 1-4.047 1.449 44 44 0 0 1-12.719 1.887H137.293a44 44 0 0 1-4.293-.22 43.6 43.6 0 0 1-12.46-3.133 42 42 0 0 1-3.888-1.839 44 44 0 0 1-7.137-4.77 45 45 0 0 1-3.183-2.886 43.3 43.3 0 0 1-5.445-6.637 43 43 0 0 1-2.211-3.683 44 44 0 0 1-3.293-7.93 45 45 0 0 1-1.047-4.168 43 43 0 0 1-.633-4.25 44 44 0 0 1-.219-4.293m0 0"/>
</svg>
